<?xml version="1.0" standalone="no"?>
<!DOCTYPE svg PUBLIC "-//W3C//DTD SVG 20010904//EN"
 "http://www.w3.org/TR/2001/REC-SVG-20010904/DTD/svg10.dtd">
<svg version="1.0" xmlns="http://www.w3.org/2000/svg"
 width="144.000000pt" height="144.000000pt" viewBox="0 0 144.000000 144.000000"
 preserveAspectRatio="xMidYMid meet">
<metadata>
Created by potrace 1.14, written by Peter Selinger 2001-2017
</metadata>
<g transform="translate(0.000000,144.000000) scale(0.100000,-0.100000)"
fill="#000000" stroke="none">
<path d="M190 1431 c-69 -21 -130 -73 -166 -141 -18 -33 -19 -70 -21 -560 -2
-509 -2 -526 18 -570 27 -60 74 -107 134 -136 l50 -24 525 3 c517 2 526 2 565
24 47 25 95 74 121 123 18 33 19 70 21 560 l3 525 -24 50 c-29 61 -76 107
-136 134 -43 19 -65 20 -555 20 -280 0 -521 -4 -535 -8z"/>
</g>
</svg>
