<svg xmlns="http://www.w3.org/2000/svg" class="svg-icon" style="width:1em;height:1em;vertical-align:middle;fill:currentColor;overflow:hidden" viewBox="0 0 1024 1024"><path d="M520.533 597.333c-46.933 0-89.6-21.333-153.6-64-102.4 72.534-196.266 76.8-264.533 17.067-21.333-17.067-38.4-42.667-51.2-72.533-8.533-25.6-8.533-64-4.267-85.334C51.2 384 59.733 349.867 68.267 332.8c12.8-38.4 51.2-110.933 89.6-187.733 8.533-17.067 29.866-59.734 76.8-59.734h554.666c46.934 0 68.267 42.667 72.534 59.734C870.4 162.133 878.933 174.933 896 217.6c42.667 89.6 59.733 119.467 68.267 149.333l4.266 8.534c8.534 8.533 12.8 21.333 12.8 34.133 0 21.333-4.266 42.667-8.533 55.467-21.333 42.666-42.667 72.533-68.267 93.866-25.6 21.334-55.466 29.867-85.333 29.867-46.933 0-93.867-21.333-153.6-64-17.067 21.333-38.4 38.4-55.467 51.2-34.133 12.8-59.733 21.333-89.6 21.333m-153.6-170.666 46.934 34.133c68.266 46.933 102.4 59.733 140.8 38.4 12.8-8.533 25.6-17.067 38.4-34.133l51.2-59.734 64 46.934C755.2 486.4 789.333 499.2 814.933 499.2c12.8 0 21.334-4.267 34.134-12.8s29.866-29.867 46.933-59.733V396.8c-12.8-21.333-29.867-55.467-68.267-140.8-21.333-42.667-29.866-59.733-38.4-72.533-4.266-4.267-4.266-8.534-4.266-8.534H243.2s-4.267 4.267-8.533 12.8c-38.4 68.267-76.8 140.8-89.6 174.934-4.267 17.066-12.8 42.666-17.067 51.2v29.866c8.533 17.067 17.067 29.867 29.867 42.667 38.4 34.133 89.6 25.6 157.866-21.333zM793.6 947.2H230.4c-64 0-110.933-55.467-110.933-119.467V669.867c0-25.6 17.066-42.667 42.666-42.667s42.667 17.067 42.667 42.667v157.866c0 21.334 12.8 34.134 25.6 34.134h563.2c17.067 0 29.867-17.067 29.867-34.134V669.867c0-25.6 17.066-42.667 42.666-42.667s42.667 17.067 42.667 42.667v157.866C904.533 896 857.6 947.2 793.6 947.2"/><path d="M277.333 281.6h469.334c21.333 0 38.4 17.067 38.4 38.4s-17.067 38.4-38.4 38.4H277.333c-21.333 0-38.4-17.067-38.4-38.4s17.067-38.4 38.4-38.4"/></svg>