<svg xmlns="http://www.w3.org/2000/svg" class="svg-icon" style="width:1em;height:1em;vertical-align:middle;fill:currentColor;overflow:hidden" viewBox="0 0 1024 1024"><path d="M794.624 366.24A32.04 32.04 0 0 0 768 352h-32c-17.696 0-32 14.304-32 32v192c0 17.696 14.304 32 32 32h128c17.696 0 32-14.304 32-32v-48a32.2 32.2 0 0 0-5.376-17.76zM864 576H736V384h32l96 144z"/><path d="m1007.872 490.752-128-192C862.016 271.968 832.128 256 800 256H672v-64c0-52.928-43.072-96-96-96H96c-52.928 0-96 43.072-96 96v352c0 52.928 43.072 96 96 96v96c0 52.928 43.072 96 96 96h36.544c14.304 55.072 64 96 123.488 96 59.424 0 109.12-40.928 123.424-96H644.48c14.304 55.072 64 96 123.488 96 59.424 0 109.12-40.928 123.424-96H928c52.928 0 96-43.072 96-96V544c0-19.008-5.568-37.44-16.128-53.248M96 576c-17.664 0-32-14.304-32-32V192c0-17.696 14.336-32 32-32h480c17.696 0 32 14.304 32 32v352c0 17.696-14.304 32-32 32zm256.032 288c-35.36 0-64-28.672-64-64s28.64-64 64-64c35.328 0 64 28.672 64 64s-28.704 64-64 64M768 864c-35.36 0-64-28.672-64-64s28.64-64 64-64c35.328 0 64 28.672 64 64s-28.672 64-64 64m192-128c0 17.696-14.304 32-32 32h-36.576c-14.304-55.072-64-96-123.424-96-59.488 0-109.184 40.928-123.488 96H475.488c-14.304-55.072-64-96-123.424-96-59.488 0-109.184 40.928-123.488 96H192c-17.664 0-32-14.304-32-32v-96h416c52.928 0 96-43.072 96-96V320h128a32.04 32.04 0 0 1 26.624 14.24l128 192A32.2 32.2 0 0 1 960 544z"/></svg>