<svg xmlns="http://www.w3.org/2000/svg" width="24" height="24" fill="none" viewBox="0 0 24 24"><circle cx="12" cy="12" r="11" fill="currentColor"/><path fill="#fff" d="M14.655 6.5H9.346c-.356 0-.646.275-.646.614V12.5c0 .34.29.614.646.614h2.448c-.017.6-.271 1.256-.658 1.83-.373.553-.985 1.098-1.318 1.36l-.025.019c-.071.065-.124.141-.125.247 0 .08.043.142.091.207l.013.014 1.694 1.817s.083.084.152.1c.077.017.164.02.225-.025 2.956-2.175 3.383-4.903 3.457-6.379v-5.19c0-.34-.289-.614-.645-.614"/></svg>