<svg xmlns="http://www.w3.org/2000/svg" width="24" height="24" fill="none" class="css-1eyg2dg" viewBox="0 0 24 24"><circle cx="12" cy="12" r="11" fill="currentColor"/><path fill="#fff" d="M18.709 8.63a1.75 1.75 0 0 0-1.238-1.237C16.378 7.1 12 7.1 12 7.1s-4.379 0-5.47.293A1.75 1.75 0 0 0 5.293 8.63C5 9.722 5 12 5 12s0 2.278.293 3.37a1.75 1.75 0 0 0 1.238 1.238C7.622 16.9 12 16.9 12 16.9s4.377 0 5.469-.292a1.75 1.75 0 0 0 1.237-1.238C19 14.279 19 12 19 12s0-2.278-.293-3.37z"/><path fill="currentColor" d="M10.601 14.1 14.24 12 10.6 9.9z"/></svg>