<svg xmlns="http://www.w3.org/2000/svg" width="36" height="36" viewBox="0 0 36 36"><g fill="none" fill-rule="evenodd"><path d="M0 0h36v36H0z"/><path fill="#FFDB92" d="M13.75 3.52h1.9a8.1 8.1 0 0 1 8.1 8.1v1.9H5.65v-1.9a8.1 8.1 0 0 1 8.1-8.1"/><path fill="#FFDB92" d="M12 3h5v2h-5z"/><path fill="#FFF" d="M12.2 23.92h5.4a7.2 7.2 0 0 1 7.2 7.2v2.8H5v-2.8a7.2 7.2 0 0 1 7.2-7.2"/><path fill="#EDEDED" fill-opacity=".14" d="M17.6 23.92c1.2 0 2.33.3 3.32.8a10.84 10.84 0 0 1-6.19 1.78c-2.28 0-4.38-.57-6.04-1.67a7.15 7.15 0 0 1 3.51-.91z"/><path stroke="#000" stroke-linecap="round" stroke-linejoin="round" d="M5 33.59V30.9a6.59 6.59 0 0 1 5.47-6.37m.17.07v3.19"/><path fill="#B1C0CB" fill-rule="nonzero" stroke="#000" stroke-linecap="round" stroke-linejoin="round" d="m8.9 33.92.98-6H21.9l.98 6"/><path fill="#FFF6E6" fill-rule="nonzero" d="M22.04 14.29c.31.9.48 2.3.48 3.31 0 4.65-3.49 7.2-7.79 7.2s-7.78-2.55-7.78-7.2c0-1.02.17-2.4.48-3.31"/><path fill="#EDE2CD" fill-rule="nonzero" d="M22.04 14.29c.16.48.29 1.09.37 1.71H7.06c.08-.62.2-1.23.37-1.71h14.6z"/><path stroke="#000" stroke-linecap="round" stroke-linejoin="round" d="M22.04 14.29c.31.9.48 2.3.48 3.31 0 4.65-3.49 7.2-7.79 7.2s-7.78-2.55-7.78-7.2c0-1.02.17-2.4.48-3.31"/><path stroke="#000" stroke-linecap="round" stroke-linejoin="round" d="M16.29 20.9c-.23.46-.84.79-1.56.79s-1.33-.33-1.56-.78"/><path stroke="#000" stroke-linecap="round" stroke-linejoin="round" stroke-width="1.3" d="M12 17.55V17m5.46.55V17"/><path fill="#EFC570" d="m9.5 5 2.88 4.72v-5.9zm10.44 0-2.89 4.72v-5.9z"/><g stroke="#000" stroke-linecap="round"><path stroke-linejoin="round" d="M5.75 11.76c0-4.08 2.9-7.45 6.63-7.94v-.3c0-.55.43-1 .95-1h2.84c.53 0 .95.45.95 1v.3c3.74.5 6.63 3.86 6.63 7.94"/><path d="M12.38 5.52v-2c0-.55.43-1 .95-1h2.84c.53 0 .95.45.95 1v2"/><path fill="#F5F5F5" fill-rule="nonzero" d="M4.2 14.02h20.7"/></g><path fill="#35C5F0" d="m26.25 33.1-3.71 1.31a1 1 0 0 1-1.34-.97l.11-3.93a1 1 0 0 0-.2-.64l-2.4-3.11a1 1 0 0 1 .5-1.57L23 23.07a1 1 0 0 0 .54-.39l2.23-3.24a1 1 0 0 1 1.65 0l2.22 3.24a1 1 0 0 0 .54.4l3.78 1.1a1 1 0 0 1 .5 1.58l-2.4 3.11a1 1 0 0 0-.2.64l.1 3.93a1 1 0 0 1-1.33.97l-3.7-1.32a1 1 0 0 0-.67 0z"/><path fill="#9AE2F7" d="M27.15 19.18a1 1 0 0 1 .26.26l2.22 3.24c.06.09.13.16.21.23l-8.58 8.58.05-1.98a1 1 0 0 0-.2-.64l-2.4-3.11a1 1 0 0 1 .5-1.57L23 23.07a1 1 0 0 0 .54-.39l2.23-3.24a1 1 0 0 1 1.39-.26z"/><path stroke="#000" d="m26.25 33.1-3.71 1.31a1 1 0 0 1-1.34-.97l.11-3.93a1 1 0 0 0-.2-.64l-2.4-3.11a1 1 0 0 1 .5-1.57L23 23.07a1 1 0 0 0 .54-.39l2.23-3.24a1 1 0 0 1 1.65 0l2.22 3.24a1 1 0 0 0 .54.4l3.78 1.1a1 1 0 0 1 .5 1.58l-2.4 3.11a1 1 0 0 0-.2.64l.1 3.93a1 1 0 0 1-1.33.97l-3.7-1.32a1 1 0 0 0-.67 0z"/></g></svg>