<svg xmlns="http://www.w3.org/2000/svg" width="24" height="24" fill="none" viewBox="0 0 24 24"><circle cx="12" cy="12" r="11" fill="currentColor"/><path fill="#fff" d="M9.1 5.049c-.744.035-1.253.154-1.697.329-.46.179-.85.42-1.239.81a3.4 3.4 0 0 0-.805 1.24c-.172.445-.289.955-.322 1.7s-.04.985-.036 2.886c.003 1.9.012 2.139.048 2.886.035.744.154 1.253.328 1.697.18.46.42.85.81 1.239.39.388.78.626 1.242.805.445.172.954.29 1.7.322.744.032.984.04 2.885.036 1.9-.003 2.14-.012 2.886-.047s1.252-.155 1.697-.329c.46-.18.85-.42 1.238-.81s.627-.78.805-1.241c.173-.445.29-.954.322-1.699.033-.747.04-.986.037-2.886s-.012-2.14-.048-2.886c-.035-.746-.154-1.253-.328-1.698a3.4 3.4 0 0 0-.81-1.239 3.4 3.4 0 0 0-1.241-.804c-.446-.173-.955-.29-1.7-.322s-.985-.04-2.886-.037c-1.9.003-2.139.012-2.885.048m.082 12.654c-.682-.03-1.053-.143-1.3-.238a2.2 2.2 0 0 1-.806-.522 2.15 2.15 0 0 1-.525-.804c-.096-.246-.211-.617-.243-1.3-.035-.737-.042-.958-.046-2.827-.004-1.87.003-2.09.035-2.828.03-.682.143-1.053.238-1.3.126-.327.278-.56.522-.806a2.16 2.16 0 0 1 .804-.525c.247-.096.617-.211 1.3-.243.738-.035.959-.042 2.827-.047 1.869-.004 2.09.003 2.83.036.681.03 1.052.143 1.299.238.327.126.56.277.806.522s.398.477.525.804c.097.246.211.616.243 1.299.036.738.044.96.047 2.828s-.003 2.09-.036 2.828c-.03.683-.143 1.053-.238 1.3-.126.327-.278.56-.522.806a2.2 2.2 0 0 1-.804.525c-.247.096-.617.211-1.299.244-.738.034-.96.042-2.828.046-1.87.004-2.09-.004-2.828-.036m5.706-9.444a.84.84 0 1 0 .839-.842.84.84 0 0 0-.839.842m-6.483 3.748a3.594 3.594 0 1 0 7.188-.014 3.594 3.594 0 0 0-7.188.014m1.26-.002a2.333 2.333 0 1 1 4.667-.011 2.333 2.333 0 0 1-4.667.011"/></svg>